<?xml version="1.0" encoding="utf-8"?>
<!-- Generator: Adobe Illustrator 26.5.0, SVG Export Plug-In . SVG Version: 6.00 Build 0)  -->
<svg version="1.1" id="Layer_1" xmlns="http://www.w3.org/2000/svg" xmlns:xlink="http://www.w3.org/1999/xlink" x="0px" y="0px"
	 viewBox="0 0 512 512" style="enable-background:new 0 0 512 512;" xml:space="preserve">
<style type="text/css">
	.st0{fill:#E17726;}
	.st1{fill:#E27625;}
	.st2{fill:#D5BFB2;}
	.st3{fill:#233447;}
	.st4{fill:#CC6228;}
	.st5{fill:#E27525;}
	.st6{fill:#F5841F;}
	.st7{fill:#C0AC9D;}
	.st8{fill:#161616;}
	.st9{fill:#763E1A;}
</style>
<g>
	<polygon class="st0" points="485.94,21.48 287.77,168.22 324.08,81.99 	"/>
	<polygon class="st0" points="485.94,21.48 484.82,19.96 292.19,162.59 325.5,83.47 486.6,23.25 485.94,21.48 484.82,19.96 
		485.94,21.48 485.28,19.71 323.41,80.22 322.33,81.25 286.03,167.48 286.6,169.7 288.89,169.74 487.07,23 487.6,20.57 
		485.28,19.71 	"/>
	<path class="st1" d="M27.57,21.48l196.66,148.25l-34.79-87.74L27.57,21.48z M413.33,361.85l-52.95,80.18l113.46,31.77l31.77-110.43
		C507.12,363.37,413.33,361.85,413.33,361.85z M6.39,364.88l31.77,110.43l113.46-31.77l-52.95-80.18
		C98.67,361.85,6.39,364.88,6.39,364.88z"/>
	<path class="st1" d="M27.57,21.48l-1.14,1.51l196.66,148.25l2.28-0.01l0.61-2.2L191.2,81.29l-1.1-1.07L28.23,19.71l-2.32,0.86
		l0.52,2.42L27.57,21.48l-0.66,1.77l161.08,60.22l32,80.7L28.71,19.97L27.57,21.48l-0.66,1.77L27.57,21.48z M413.33,361.85
		l-1.58-1.04l-52.95,80.18l-0.19,1.7l1.26,1.16l113.46,31.77l2.33-1.3l31.77-110.43l-1.82-0.52v1.89l0.17-0.01l1.69-1.49l-0.94-2.05
		l-0.68-0.22l-0.48-0.02c-5.62-0.11-92.02-1.51-92.02-1.51l-1.61,0.85L413.33,361.85l-0.03,1.89c0.05,0,23.07,0.37,46.15,0.75
		c11.54,0.19,23.07,0.38,31.73,0.52c4.33,0.07,7.93,0.13,10.45,0.17l2.93,0.05l0.77,0.01h0.19h0.03l0.04-1.13l-0.06,1.13h0.02
		l0.04-1.13l-0.06,1.13l0.09-1.79l-0.15,1.79h0.06l0.09-1.79l-0.15,1.79l0.15-1.87l-0.28,1.86l0.12,0.01l0.15-1.87l-0.28,1.86
		l0.28-1.87l-0.51,1.82l0.23,0.05l0.28-1.87l-0.51,1.82l0.51-1.82l0,0l-0.16-1.88l0.14,1.67v-1.68l-0.14,0.01l0.14,1.67v-1.68
		l-1.82,1.37l-31.25,108.63l-109.15-30.56l51.52-78.01L413.33,361.85l-0.03,1.89L413.33,361.85z M6.39,364.88l-1.82,0.52
		l31.77,110.43l2.33,1.3l113.46-31.77l1.26-1.16l-0.19-1.7l-52.95-80.18l-1.58,1.04h1.89l-0.94-1.67l-1.7-0.44
		c-1.62-0.15-4.66-0.21-8.84-0.21c-23.7,0-82.73,1.94-82.74,1.94l-1.47,0.78l-0.29,1.64L6.39,364.88l0.06,1.89
		c0.08,0,59.07-1.94,82.62-1.94c2.94,0,5.32,0.03,6.94,0.1l1.76,0.12l0.21,0.03l0.38-1.34l-0.72,1.18l0.34,0.16l0.38-1.34
		l-0.72,1.18l0.96-1.56h-1.81l0.86,1.56l0.96-1.56H96.8l0.31,1.04l51.52,78.01L39.46,472.98L8.21,364.36L6.39,364.88l0.06,1.89
		L6.39,364.88z"/>
	<path class="st1" d="M145.57,225.7l-31.77,46.9l111.95,4.54l-3.03-121.02L145.57,225.7z M367.95,225.7l-78.66-69.59l-3.03,122.54
		l111.95-4.54C398.2,272.6,367.95,225.7,367.95,225.7z M151.62,443.54l68.08-33.28l-59-45.38L151.62,443.54z M293.82,410.26
		l68.08,33.28l-9.08-78.66C351.31,364.88,293.82,410.26,293.82,410.26z"/>
	<path class="st1" d="M145.57,225.7l-1.57-1.06l-31.77,46.9l-0.12,1.91l1.61,1.04l111.95,4.54l1.4-0.54l0.56-1.39l-3.03-121.02
		l-1.14-1.69l-2.01,0.33L144.3,224.3l-0.3,0.34L145.57,225.7l1.27,1.4l74.1-66.83l2.87,114.89l-106.53-4.32l29.86-44.08
		L145.57,225.7l1.27,1.4L145.57,225.7z M367.95,225.7l1.25-1.42l-78.66-69.59l-2.01-0.32l-1.14,1.69l-3.03,122.54l0.56,1.39
		l1.4,0.54L398.28,276l1.81-1.89l-0.24-1.02c-0.6-1.36-2.65-4.74-5.59-9.51c-8.75-14.15-24.72-38.9-24.73-38.91l-0.34-0.39
		L367.95,225.7l-1.59,1.02c0.02,0.02,7.56,11.72,15.12,23.63c3.78,5.95,7.56,11.95,10.39,16.55c1.41,2.3,2.59,4.24,3.4,5.64
		l0.92,1.64l0.19,0.4l0.02-0.01l-0.02,0.01l0,0l0.02-0.01l-0.02,0.01l1.48-0.47h-1.54l0.07,0.47l1.48-0.47h-1.54h1.89l-0.08-1.89
		l-109.93,4.46l2.88-116.46l75.62,66.9L367.95,225.7l-1.59,1.02L367.95,225.7z M151.62,443.54l0.83,1.7l68.08-33.28l1.05-1.51
		l-0.73-1.69l-59-45.38l-1.89-0.24l-1.14,1.52l-9.08,78.66l0.79,1.76l1.92,0.15L151.62,443.54l1.88,0.22l8.69-75.35l53.93,41.49
		l-65.34,31.94L151.62,443.54l1.88,0.22L151.62,443.54z M293.82,410.26l-0.83,1.7l68.08,33.28l1.92-0.15l0.79-1.76l-9.08-78.66
		l-1.88-1.67l-1.23,0.37c-1.49,0.85-5.61,3.94-11.4,8.34c-17.2,13.12-47.54,37.08-47.55,37.08l-0.71,1.69l1.05,1.5L293.82,410.26
		l1.17,1.48c0.03-0.02,14.37-11.34,28.92-22.68c7.28-5.67,14.6-11.34,20.19-15.59c2.79-2.12,5.16-3.89,6.85-5.11l1.99-1.39
		l0.49-0.31l0.02-0.01l-0.64-1.48v1.6l0.64-0.12l-0.64-1.48v1.6v-1.89l-1.88,0.22l8.68,75.23l-64.97-31.76L293.82,410.26l1.17,1.48
		L293.82,410.26z"/>
	<path class="st2" d="M360.38,443.54l-68.08-33.28l6.05,43.87v18.15L360.38,443.54z M151.62,443.54l63.54,30.26v-18.15l6.05-43.87
		L151.62,443.54z"/>
	<path class="st2" d="M360.38,443.54l0.83-1.7l-68.08-33.28l-1.94,0.17l-0.76,1.79l6.03,43.74v18.02l0.87,1.59l1.81,0.12
		l62.02-28.74l1.1-1.7l-1.06-1.72L360.38,443.54l-0.8-1.72l-59.34,27.5v-15.19l-0.02-0.26l-5.57-40.35l64.89,31.72L360.38,443.54
		l-0.8-1.72L360.38,443.54z M151.62,443.54l-0.81,1.71l63.54,30.26l1.82-0.11l0.88-1.6v-18.02l6.03-43.75l-0.74-1.78l-1.91-0.2
		l-69.59,31.77l-1.11,1.7l1.08,1.72L151.62,443.54l0.79,1.72l66.46-30.34l-5.58,40.46l-0.02,0.26v15.16l-60.83-28.97L151.62,443.54
		l0.79,1.72L151.62,443.54z"/>
	<path class="st3" d="M215.16,336.14l-55.97-16.64l39.33-18.15L215.16,336.14z M296.85,336.14l16.64-34.79l39.33,18.15
		L296.85,336.14z"/>
	<path class="st3" d="M215.16,336.14l0.54-1.81l-51.17-15.21l33.09-15.27l15.84,33.11L215.16,336.14l0.54-1.81L215.16,336.14
		l1.71-0.82l-16.64-34.79l-2.5-0.9l-39.33,18.15l-1.09,1.85l1.35,1.68l55.97,16.64l1.98-0.58l0.27-2.04L215.16,336.14z
		 M296.85,336.14l1.71,0.82l15.84-33.11l33.09,15.27l-51.17,15.21L296.85,336.14l1.71,0.82L296.85,336.14l0.54,1.81l55.97-16.64
		l1.35-1.68l-1.09-1.85l-39.33-18.15l-2.5,0.9l-16.64,34.79l0.27,2.04l1.98,0.58L296.85,336.14z"/>
	<path class="st4" d="M151.62,443.54l9.08-80.18l-62.02,1.51L151.62,443.54z M351.31,361.85l9.08,80.18l52.95-78.66L351.31,361.85z
		 M398.2,274.11l-111.95,4.54l10.59,57.49l16.64-34.79l39.33,18.15L398.2,274.11z M159.18,319.5l39.33-18.15l16.64,34.79
		l10.59-57.49l-111.95-4.54L159.18,319.5z"/>
	<path class="st4" d="M151.62,443.54l1.88,0.21l9.08-80.18l-0.48-1.49l-1.44-0.61l-62.02,1.51L97.01,364l0.11,1.92l52.95,78.66
		l2.02,0.78l1.43-1.62L151.62,443.54l1.57-1.06l-51.02-75.8l56.4-1.38l-8.83,78.02L151.62,443.54l1.57-1.06L151.62,443.54z
		 M351.31,361.85l-1.88,0.21l9.08,80.18l1.43,1.62l2.02-0.78l52.95-78.66l0.11-1.92l-1.63-1.02l-62.02-1.51l-1.44,0.61l-0.48,1.49
		L351.31,361.85l-0.05,1.89l58.58,1.43l-48.15,71.54l-8.5-75.07L351.31,361.85l-0.05,1.89L351.31,361.85z M398.2,274.11l-0.08-1.89
		l-111.95,4.54l-1.4,0.71l-0.38,1.52l10.59,57.49l1.61,1.53l1.95-1.06l15.84-33.11l37.64,17.37l2.13-0.38l45.38-45.38l0.39-2.1
		l-1.81-1.13L398.2,274.11l-1.34-1.34l-44.45,44.45l-38.13-17.6l-2.5,0.9l-14.13,29.54l-9.14-49.62L398.28,276L398.2,274.11
		l-1.34-1.34L398.2,274.11z M159.18,319.5l0.79,1.72l37.64-17.37l15.84,33.11l1.95,1.06l1.61-1.53L227.6,279l-0.38-1.52l-1.4-0.71
		l-111.95-4.54l-1.81,1.13l0.39,2.1l45.38,45.38l2.13,0.38L159.18,319.5l1.34-1.34l-41.96-41.96l104.93,4.25l-9.14,49.62
		l-14.13-29.54l-2.5-0.9l-39.33,18.15L159.18,319.5l1.34-1.34L159.18,319.5z"/>
	<path class="st5" d="M113.8,272.6l46.9,92.28l-1.51-45.38C159.18,319.5,113.8,274.11,113.8,272.6z M352.82,319.5l-1.51,45.38
		l46.9-92.28L352.82,319.5z M225.74,278.65l-10.59,57.49l13.61,68.08l3.03-89.25L225.74,278.65z M286.26,278.65l-6.05,36.31
		l3.03,89.25l13.61-68.08L286.26,278.65z"/>
	<path class="st5" d="M113.8,272.6l-1.69,0.86l46.9,92.28l2.16,0.97l1.42-1.89l-1.51-45.38l-0.55-1.27
		c-0.02-0.02-11.34-11.34-22.68-22.87c-5.67-5.76-11.34-11.57-15.58-16.03c-2.12-2.23-3.88-4.11-5.1-5.47l-1.37-1.59l-0.28-0.37
		l-0.34,0.22l0.36-0.17l-0.02-0.05l-0.34,0.22l0.36-0.17l-1.49,0.73h1.65l-0.16-0.73l-1.49,0.73h1.65h-1.9l-1.69,0.86L113.8,272.6
		h-1.89l0.44,1.31c0.94,1.38,3.99,4.63,8.41,9.26c13.13,13.71,37.08,37.66,37.09,37.67l1.34-1.34l-1.89,0.06l1.23,36.87
		l-43.04-84.69l-2.13-0.98l-1.45,1.84H113.8z M352.82,319.5l-1.89-0.06l-1.51,45.38l1.42,1.89l2.16-0.97l46.9-92.28l-0.59-2.4
		l-2.46,0.22l-45.38,46.9l-0.53,1.25L352.82,319.5l1.36,1.31l36.65-37.87l-37.35,73.49l1.23-36.87L352.82,319.5l1.36,1.31
		L352.82,319.5z M225.74,278.65l-1.86-0.34l-10.59,57.49l0.01,0.71l13.61,68.08l2.01,1.51l1.74-1.82l3.03-89.25l-0.02-0.37
		l-6.05-36.31l-1.85-1.58l-1.88,1.55L225.74,278.65l-1.87,0.31l6.02,36.12l-2.47,72.8l-10.35-51.76l10.52-57.13L225.74,278.65
		l-1.87,0.31L225.74,278.65z M286.26,278.65l-1.87-0.31l-6.05,36.31l-0.02,0.37l3.03,89.25l1.74,1.82l2.01-1.51l13.61-68.08
		l0.01-0.71l-10.59-57.49l-1.88-1.55l-1.85,1.58L286.26,278.65l-1.86,0.34l10.52,57.13l-10.35,51.75l-2.47-72.79l6.02-36.12
		L286.26,278.65l-1.86,0.34L286.26,278.65z"/>
	<path class="st6" d="M296.85,336.14l-13.61,68.08l9.08,6.05l59-45.38l1.51-45.38L296.85,336.14z M159.18,319.5l1.51,45.38l59,45.38
		l9.08-6.05l-13.61-68.08L159.18,319.5z"/>
	<path class="st6" d="M296.85,336.14l-1.85-0.37l-13.61,68.08l0.81,1.94l9.08,6.05l2.2-0.07l59-45.38l0.74-1.44l1.51-45.38
		l-0.73-1.56l-1.69-0.32l-55.97,16.64l-1.32,1.44L296.85,336.14l0.54,1.81l53.46-15.89l-1.4,41.87l-57.22,44.01l-6.9-4.6
		l13.37-66.83L296.85,336.14l0.54,1.81L296.85,336.14z M159.18,319.5l-1.89,0.06l1.51,45.38l0.74,1.44l59,45.38l2.2,0.07l9.08-6.05
		l0.81-1.94l-13.61-68.08l-1.32-1.44l-55.97-16.64l-1.69,0.32l-0.73,1.56L159.18,319.5l-0.54,1.81l54.88,16.32l13.14,65.72
		l-6.89,4.6l-57.22-44.01l-1.48-44.49L159.18,319.5l-0.54,1.81L159.18,319.5z"/>
	<polygon class="st7" points="298.36,472.29 298.36,454.13 293.82,449.59 218.18,449.59 213.64,454.13 213.64,472.29 150.11,442.03 
		172.8,460.18 216.67,490.44 293.82,490.44 339.2,460.18 360.38,442.03 	"/>
	<polygon class="st7" points="298.36,472.29 300.25,472.29 300.25,454.13 299.7,452.8 295.16,448.26 293.82,447.7 218.18,447.7 
		216.84,448.26 212.3,452.8 211.75,454.13 211.75,469.29 150.92,440.32 148.5,441.03 148.92,443.51 171.62,461.66 171.72,461.74 
		215.59,492 216.67,492.33 293.82,492.33 294.87,492.01 340.25,461.76 340.43,461.62 361.61,443.47 361.96,440.99 359.55,440.33 
		297.53,470.59 298.36,472.29 300.25,472.29 298.36,472.29 299.19,473.99 347.94,450.2 338.06,458.67 293.25,488.55 217.26,488.55 
		173.93,458.67 164.05,450.77 212.83,473.99 214.65,473.88 215.53,472.29 215.53,454.92 218.96,451.48 293.04,451.48 296.47,454.92 
		296.47,472.29 297.36,473.89 299.19,473.99 	"/>
	<polygon class="st8" points="293.82,410.26 284.74,404.21 228.77,404.21 219.69,410.26 213.64,454.13 218.18,449.59 293.82,449.59 
		298.36,454.13 	"/>
	<polygon class="st8" points="293.82,410.26 294.87,408.69 285.79,402.64 284.74,402.32 228.77,402.32 227.72,402.64 218.64,408.69 
		217.82,410 211.77,453.87 212.8,455.83 214.98,455.47 218.96,451.48 293.04,451.48 297.02,455.47 299.17,455.84 300.24,453.94 
		295.7,410.07 294.87,408.69 293.82,410.26 291.94,410.46 295.93,449.03 295.16,448.26 293.82,447.7 218.18,447.7 216.84,448.26 
		216.28,448.82 221.45,411.36 229.34,406.1 284.17,406.1 292.77,411.84 293.82,410.26 291.94,410.46 	"/>
	<path class="st9" d="M493.51,178.81l16.64-81.69l-24.2-75.64l-192.12,142.2l74.13,62.02l104.38,30.26l22.69-27.23l-10.59-7.56
		l15.13-15.13l-12.1-9.08l15.13-12.1L493.51,178.81z M1.85,97.12l16.64,81.69L7.9,186.37l16.64,12.1l-12.1,9.08l15.13,15.13
		l-10.59,7.56l22.69,27.23l104.38-30.26l74.13-62.02L27.57,21.48L1.85,97.12z"/>
	<path class="st9" d="M493.51,178.81l1.85,0.38L512,97.49l-0.05-0.95l-24.2-75.64l-1.22-1.22l-1.71,0.28L292.7,162.16l-0.77,1.46
		l0.68,1.51l74.13,62.02l0.69,0.37l104.38,30.26l1.98-0.61l22.69-27.23l0.42-1.45l-0.78-1.3l-8.77-6.27l13.55-13.55l0.55-1.47
		l-0.75-1.38l-10.15-7.61l13.22-10.58l0.71-1.56l-0.84-1.49l-9.08-6.05L493.51,178.81l1.85,0.38L493.51,178.81l-1.05,1.57l6.93,4.62
		l-13.11,10.49l-0.71,1.51l0.76,1.48l10.36,7.77l-13.59,13.59l-0.55,1.49l0.79,1.38l8.93,6.38l-20.6,24.71L368.85,224l-71.98-60.23
		l188.07-139.2l23.25,72.66l-16.54,81.21l0.8,1.95L493.51,178.81z M1.85,97.12L0,97.49l16.4,80.49l-9.59,6.85l-0.79,1.53l0.78,1.54
		l14.57,10.6l-10.05,7.54l-0.75,1.38l0.55,1.47l13.55,13.55l-8.77,6.27l-0.78,1.3l0.42,1.45l22.69,27.23l1.98,0.61l104.38-30.26
		l0.69-0.37l74.13-62.02l0.68-1.5l-0.75-1.46L28.71,19.97l-1.69-0.3l-1.23,1.2L0.06,96.51L0,97.49L1.85,97.12l1.79,0.61l24.88-73.16
		l186.62,140.71l-72,60.24l-102.81,29.8l-20.6-24.72l8.93-6.38l0.79-1.38l-0.55-1.49l-13.59-13.59l10.36-7.77l0.76-1.53l-0.78-1.52
		l-14.52-10.56l8.45-6.04l0.75-1.92L3.71,96.74L1.85,97.12l1.79,0.61L1.85,97.12z"/>
	<path class="st6" d="M470.81,255.96L366.43,225.7l31.77,46.9l-46.9,90.77h62.02h92.28L470.81,255.96z M145.57,225.7L41.19,255.96
		L6.39,363.37h92.28h62.02l-46.9-90.77L145.57,225.7z M286.26,278.65l7.56-114.97l30.26-81.69H189.44l30.26,81.69l6.05,114.97
		l3.03,36.31v89.25h55.97v-89.25L286.26,278.65z"/>
	<path class="st6" d="M470.81,255.96l0.53-1.82l-104.38-30.26l-2.06,0.7l-0.04,2.17L396,272.72l-46.38,89.77l0.06,1.85l1.62,0.91
		h62.02h92.28l1.53-0.78l0.27-1.69l-34.79-107.41l-1.27-1.23L470.81,255.96l-1.8,0.58L503,361.47h-89.68H354.4l45.47-88.01
		l-0.11-1.93l-28.83-42.56l99.35,28.8L470.81,255.96l-1.8,0.58L470.81,255.96z M145.57,225.7l-0.53-1.82L40.66,254.14l-1.27,1.23
		L4.59,362.78l0.27,1.7l1.53,0.78h92.28h62.02l1.61-0.91l0.06-1.85l-46.38-89.77l31.14-45.97l-0.04-2.17l-2.06-0.7L145.57,225.7
		l-1.57-1.06l-31.77,46.9l-0.11,1.93l45.47,88.01H98.67H8.99L42.67,257.5l103.42-29.98L145.57,225.7l-1.57-1.06L145.57,225.7z
		 M286.26,278.65l1.89,0.12l7.55-114.7l30.16-81.43l-0.22-1.74l-1.55-0.81H189.44l-1.55,0.81l-0.22,1.74l30.15,81.42l6.04,114.69
		v0.06l3.02,36.23v89.17l0.55,1.34l1.34,0.55h55.97l1.34-0.55l0.55-1.34V315l1.51-36.27L286.26,278.65l1.89,0.12L286.26,278.65
		l-1.89-0.08l-1.51,36.31v0.08v87.36h-52.19v-87.36l-0.01-0.16l-3.02-36.28l-6.05-114.95l-0.11-0.56l-29.31-79.14h129.2
		l-29.31,79.14l-0.11,0.53l-7.56,114.97v0.05L286.26,278.65z"/>
</g>
</svg>
